{"title":"After.Life.2010.720p.BRRip.XviD.AC3-LEGi0N","uid":5759263,"size":2690656592,"categoryP":"video","categoryS":"hd___movies","magnet":"?xt=urn:btih:1ad2c996df91d17193cae9463b45686571eaa6fd&amp;dn=After.Life.2010.720p.BRRip.XviD.AC3-LEGi0N&amp;tr=udp%3A%2F%2Ftracker.openbittorrent.com%3A80&amp;tr=udp%3A%2F%2Fopen.demonii.com%3A1337&amp;tr=udp%3A%2F%2Ftracker.coppersurfer.tk%3A6969&amp;tr=udp%3A%2F%2Fexodus.desync.com%3A6969","seeders":0,"leechers":1,"uploader":"TvTeam","files":5,"time":1281672451,"description":". \n  &lt;a href=&quot;\nhttp://www.torrentday.com/&quot; rel=&quot;nofollow&quot; target=&quot;_NEW&quot;&gt;\nhttp://www.torrentday.com/&lt;/a&gt;        :     The Hottest Private Tracker On The Net!!!\n\n\n               www . TorrentDay . Com \n(((((((((((((= Enjoy No RAR releases =))))))))))))))))))))\n\n\n...................................NFO:....................................\n\n.[img]http://leetleech.org/images/18588870136005350946.png[/img]\n\n[b]After Life 2010 720p BRRip XviD AC3-LEGi0N\n\n[img]http://leetleech.org/images/48874973695367351744.png[/img]\n[color=red]General[/color]\nFormat: AVI\nFile size: 2.49 GiB\nDuration: 1h 42mn\nOverall bit rate: 3 460 Kbps\nIMDb Rating: 6.3/10   2,039 votes\nGenre: Drama | Mystery | Thriller \nRelease Date: 26 August 2010\nIMDb Link: http://www.imdb.com/title/tt0838247/\nSource: 720p BluRay x264-DEPRAViTY\n\n[color=red]Video[/color]\nFormat: MPEG-4 Visual\nFormat profile: Streaming Video@L1\nFormat settings, BVOP: Yes\nFormat settings, QPel: No\nFormat settings, GMC: No warppoints\nFormat settings, Matrix: Default (H.263)\nMuxing mode: Packed bitstream\nCodec ID: XVID\nBit rate: 3 000 Kbps\nWidth: 1 280 pixels\nHeight: 528 pixels\nDisplay aspect ratio: 2.424\nFrame rate: 23.976 fps\nResolution: 24 bits\nColorimetry: 4:2:0\nScan type: Progressive\nBits/(Pixel*Frame): 0.185\nStream size: 2.16 GiB (87%)\n\n[color=red]Audio[/color]\nFormat: AC-3\nBit rate mode: Constant\nBit rate: 448 Kbps\nChannel(s): 6 channels\nSampling rate: 48.0 KHz\nStream size: 330 MiB (13%)\n\n[img]http://leetleech.org/images/89524873606771859129.png[/img]\nA young woman caught between life and death... and a funeral \ndirector who appears to have the gift of transitioning the \ndead, but might just be intent on burying her alive.\n\n[color=red]Tagline:[/color]\nLife is the symptom. Death is the cure.\n\n[img]http://leetleech.org/images/84434050717770922575.png[/img]\nChristina Ricci\t ... \tAnna Taylor\nLiam Neeson\t... \tEliot Deacon\nJustin Long\t... \tPaul Coleman\nChandler Canterbury\t... \tJack\nCelia Weston\t... \tBeatrice Taylor\nLuz Alexandra Ramos\t... \tDiane\nJosh Charles\t... \tTom Peterson\nRosemary Murphy\t... \tMrs. Whitehall\nMalachy McCourt\t... \tFather Graham\nShuler Hensley\t... \tVincent Miller\nAlice Drummond\t... \tMrs. Hutton\nSam Kressner\t... \tAcne Kid\nDoan Ly\t... \tTeacher #1\nJack Rovello\t... \tTall Kid\nPrudence Wright Holmes\t... \tOld Woman #1\n\n[color=red]GREETZ[/color]\nNoir | xXTHORNXx | bigimac | LUSi |\n\nkempas | KaN1vE | mike160 | skillz |\n\nLungbuster | Sheikh | dillon1369 |\n\nFLAWL3SS | AND ALL P2P!\n\n[color=red]SAMPLE INCLUDED![/color][/b]\n\n[img]http://leetleech.org/images/95521316153253938506.png[/img]\n[img]http://leetleech.org/images/06550654057459714038.png[/img]\n[img]http://leetleech.org/images/83914914745411948042.png[/img]\n[img]http://leetleech.org/images/45925278847955119085.png[/img]\n[img]http://leetleech.org/images/44556847528562434178.png[/img]\n[img]http://leetleech.org/images/01242710423377746231.png[/img]\n[img]http://leetleech.org/images/12755021538703799215.png[/img]","torrent":{"xt":"urn:btih:1ad2c996df91d17193cae9463b45686571eaa6fd","amp;dn":"After.Life.2010.720p.BRRip.XviD.AC3-LEGi0N","amp;tr":["udp%3A%2F%2Ftracker.openbittorrent.com%3A80","udp%3A%2F%2Fopen.demonii.com%3A1337","udp%3A%2F%2Ftracker.coppersurfer.tk%3A6969","udp%3A%2F%2Fexodus.desync.com%3A6969"],"infoHash":"1ad2c996df91d17193cae9463b45686571eaa6fd","infoHashBuffer":{"type":"Buffer","data":[26,210,201,150,223,145,209,113,147,202,233,70,59,69,104,101,113,234,166,253]},"announce":[],"urlList":[]}}